<?xml version="1.0" standalone="no"?>
<!DOCTYPE svg PUBLIC "-//W3C//DTD SVG 20010904//EN"
 "http://www.w3.org/TR/2001/REC-SVG-20010904/DTD/svg10.dtd">
<svg version="1.0" xmlns="http://www.w3.org/2000/svg"
 width="500.000000pt" height="500.000000pt" viewBox="0 0 500.000000 500.000000"
 preserveAspectRatio="xMidYMid meet">
<metadata>
Created by potrace 1.14, written by Peter Selinger 2001-2017
</metadata>
<g transform="translate(0.000000,500.000000) scale(0.100000,-0.100000)"
fill="#000000" stroke="none">
<path d="M1027 3864 c-1 -1 -47 -4 -102 -7 -97 -6 -164 -22 -187 -45 -7 -7
-17 -12 -24 -12 -18 0 -119 -102 -140 -141 -10 -19 -28 -59 -39 -89 -21 -55
-21 -66 -19 -1075 2 -561 4 -1030 6 -1041 12 -68 95 -192 163 -244 36 -28 117
-62 164 -69 25 -3 638 -6 1361 -5 1021 0 1325 3 1359 13 99 28 204 118 250
215 40 83 44 107 46 291 1 88 3 164 4 168 0 5 16 0 34 -11 17 -11 59 -34 92
-52 33 -18 85 -46 115 -62 30 -17 78 -42 105 -57 28 -14 52 -28 55 -31 3 -3
28 -16 55 -30 97 -49 160 -85 167 -95 4 -5 8 -6 8 -1 0 5 6 3 14 -3 20 -16 53
-23 111 -23 71 0 129 17 163 49 7 7 21 18 30 25 23 17 56 73 72 122 9 29 12
231 12 836 0 438 -3 812 -7 831 -28 127 -132 212 -265 214 -61 1 -72 -2 -185
-60 -141 -73 -215 -114 -232 -128 -7 -5 -13 -6 -13 -1 0 5 -4 4 -8 -2 -4 -5
-52 -34 -107 -64 -55 -29 -127 -68 -160 -86 l-61 -33 -1 157 c-1 86 -4 176 -7
200 -11 88 -82 200 -167 265 -44 33 -129 67 -182 71 -28 3 -52 5 -52 6 0 1
-2427 5 -2428 4z m2503 -252 c50 -24 99 -88 101 -132 1 -14 2 -459 3 -990 2
-816 0 -971 -12 -1005 -20 -56 -81 -111 -133 -120 -73 -13 -2569 -9 -2615 4
-44 12 -80 39 -110 86 -18 29 -19 58 -19 1041 l0 1011 27 39 c30 43 75 74 120
83 16 3 606 6 1311 5 l1282 -1 45 -21z m1137 -324 c6 -15 9 -306 9 -799 -1
-828 0 -810 -49 -805 -13 2 -72 30 -132 63 -106 58 -181 99 -310 168 -33 18
-96 52 -140 75 -44 24 -102 56 -130 71 l-50 28 0 407 0 408 58 32 c31 18 57
30 57 26 0 -4 4 -2 8 3 4 6 41 28 82 50 41 21 77 42 78 47 2 4 12 8 22 8 9 0
23 7 30 15 7 8 16 13 20 10 4 -3 13 2 20 10 7 8 16 15 20 15 4 0 43 20 86 44
183 102 270 146 290 146 12 0 25 -9 31 -22z"/>
<path d="M1992 3468 c-111 -22 -243 -77 -340 -142 -77 -51 -191 -157 -238
-221 -16 -22 -31 -42 -34 -45 -18 -18 -109 -199 -115 -230 -2 -8 -8 -28 -14
-43 -6 -15 -13 -42 -16 -60 -4 -18 -10 -48 -14 -67 -13 -58 -11 -249 4 -330
55 -310 255 -574 537 -714 283 -139 612 -135 888 11 138 73 244 162 339 288
30 38 58 81 64 95 7 14 14 27 17 30 20 17 82 194 94 268 4 17 9 47 12 65 16
91 1 311 -26 382 -5 14 -9 29 -8 33 1 4 -6 24 -15 46 -9 21 -17 42 -17 46 0
11 -50 104 -84 158 -69 109 -214 252 -311 306 -17 9 -37 21 -45 26 -20 13
-125 61 -142 64 -63 14 -78 20 -78 26 0 5 -8 7 -17 6 -10 -2 -33 1 -53 7 -68
18 -288 16 -388 -5z m248 -343 c92 -11 174 -86 197 -180 10 -42 10 -403 -1
-445 -9 -39 -66 -114 -100 -134 -17 -10 -32 -17 -34 -17 -1 1 -15 -5 -30 -12
-16 -9 -51 -13 -87 -12 -95 3 -179 60 -218 145 -18 40 -20 66 -20 255 0 196 1
213 22 258 24 52 67 98 115 123 34 18 125 34 141 25 6 -3 12 -6 15 -6z m-328
-528 c1 -15 5 -31 8 -37 1 -3 4 -18 5 -35 2 -16 4 -31 5 -32 1 -2 3 -6 5 -10
20 -73 97 -147 180 -172 62 -19 71 -19 144 -7 110 20 206 133 213 252 2 57 42
85 79 56 13 -11 21 -30 22 -47 3 -159 -120 -316 -279 -356 -29 -8 -44 -17 -45
-28 0 -9 -1 -59 -2 -111 l-1 -95 66 -1 c76 -1 98 -13 98 -55 0 -21 -6 -32 -22
-38 -13 -5 -105 -8 -206 -7 -195 1 -201 3 -202 52 0 33 25 47 89 48 33 0 63 5
68 9 4 5 8 54 8 109 1 97 0 100 -23 109 -14 5 -32 11 -41 12 -34 6 -94 41
-141 84 -54 49 -106 142 -115 208 -3 22 -7 45 -9 50 -6 20 14 56 36 64 25 9
57 -2 60 -22z"/>
<path d="M2106 2999 c-52 -44 -61 -87 -60 -284 1 -93 6 -181 12 -195 31 -78
123 -115 198 -80 21 10 50 35 64 55 23 36 24 44 25 219 0 99 -4 196 -9 214 -5
19 -27 49 -49 67 -33 29 -45 33 -92 33 -44 -1 -60 -6 -89 -29z"/>
<path d="M97 3725 c-2 -5 -3 -561 -3 -1235 l1 -1224 118 -1 117 -1 0 1236 0
1236 -115 0 c-70 0 -116 -4 -118 -11z"/>
</g>
</svg>
