<?xml version="1.0" standalone="no"?>
<!DOCTYPE svg PUBLIC "-//W3C//DTD SVG 20010904//EN"
 "http://www.w3.org/TR/2001/REC-SVG-20010904/DTD/svg10.dtd">
<svg version="1.0" xmlns="http://www.w3.org/2000/svg"
 width="192.000000pt" height="192.000000pt" viewBox="0 0 192.000000 192.000000"
 preserveAspectRatio="xMidYMid meet">

<g transform="translate(0.000000,192.000000) scale(0.100000,-0.100000)"
fill="#000000" stroke="none">
<path d="M888 1817 c-32 -18 -58 -36 -58 -40 0 -16 95 -146 101 -139 4 4 25
46 47 94 l41 88 -22 15 c-30 21 -44 19 -109 -18z"/>
<path d="M996 1707 c-32 -69 -44 -107 -39 -119 4 -9 58 -88 118 -177 97 -141
112 -158 123 -143 19 24 182 329 182 339 -1 4 -56 40 -123 78 -67 39 -142 82
-168 97 l-45 26 -48 -101z"/>
<path d="M635 1670 c-82 -50 -219 -129 -302 -177 l-153 -88 0 -46 c0 -45 5
-53 122 -195 66 -82 152 -186 190 -232 l70 -83 35 73 c81 169 313 669 313 674
0 14 -106 163 -115 163 -5 0 -77 -40 -160 -89z"/>
<path d="M920 1601 c0 -6 5 -13 10 -16 6 -3 10 1 10 9 0 9 -4 16 -10 16 -5 0
-10 -4 -10 -9z"/>
<path d="M1403 1578 c-6 -7 -52 -91 -103 -185 l-92 -173 74 -107 c40 -60 127
-188 193 -285 66 -98 123 -177 126 -178 4 0 36 55 73 122 l66 123 0 255 0 255
-156 90 c-183 106 -168 99 -181 83z"/>
<path d="M887 1472 c-25 -53 -85 -180 -132 -282 -48 -102 -106 -226 -130 -277
l-43 -91 108 -132 c60 -72 111 -132 115 -133 5 -2 345 610 362 650 5 12 -32
68 -184 290 l-50 73 -46 -98z"/>
<path d="M180 873 l0 -390 81 -47 c45 -26 83 -45 86 -42 4 4 88 180 168 353
l33 71 -175 214 c-96 117 -179 217 -184 223 -5 5 -9 -144 -9 -382z"/>
<path d="M1180 1220 c0 -5 5 -10 10 -10 6 0 10 5 10 10 0 6 -4 10 -10 10 -5 0
-10 -4 -10 -10z"/>
<path d="M1180 1169 c-7 -12 -89 -162 -181 -331 -93 -170 -169 -311 -169 -314
0 -6 311 -384 317 -384 6 0 211 118 243 141 15 10 62 84 110 173 54 98 90 154
98 151 6 -2 12 2 12 9 0 8 -6 13 -14 12 -12 -1 -127 160 -381 533 l-23 33 -12
-23z"/>
<path d="M562 820 c0 -14 2 -19 5 -12 2 6 2 18 0 25 -3 6 -5 1 -5 -13z"/>
<path d="M1679 721 l-57 -105 50 -74 c31 -45 54 -70 59 -65 5 5 8 84 7 179
l-3 169 -56 -104z"/>
<path d="M504 653 c-37 -76 -81 -170 -99 -210 l-34 -72 122 -70 c67 -39 126
-72 130 -73 5 -2 45 64 89 145 72 133 79 150 66 165 -9 9 -59 70 -112 135
l-96 119 -66 -139z"/>
<path d="M1555 493 c-27 -48 -60 -108 -74 -133 l-25 -44 34 21 c19 11 71 42
115 68 44 26 82 49 84 51 5 4 -56 99 -74 114 -10 8 -23 -7 -60 -77z"/>
<path d="M800 520 c0 -5 5 -10 10 -10 6 0 10 5 10 10 0 6 -4 10 -10 10 -5 0
-10 -4 -10 -10z"/>
<path d="M787 448 c-55 -96 -127 -231 -127 -238 0 -4 68 -46 150 -94 l150 -88
80 47 81 47 -44 52 c-24 28 -92 111 -151 184 -60 72 -110 132 -112 132 -2 0
-14 -19 -27 -42z"/>
</g>
</svg>
